<svg width="110" height="18" viewBox="0 0 110 18" fill="none" xmlns="http://www.w3.org/2000/svg">
<path d="M5.964 11.404H2.628L2.076 13H0.312L3.324 4.612H5.28L8.292 13H6.516L5.964 11.404ZM5.508 10.06L4.296 6.556L3.084 10.06H5.508ZM13.1018 6.256C13.8938 6.256 14.5338 6.508 15.0218 7.012C15.5098 7.508 15.7538 8.204 15.7538 9.1V13H14.0738V9.328C14.0738 8.8 13.9418 8.396 13.6778 8.116C13.4138 7.828 13.0538 7.684 12.5978 7.684C12.1338 7.684 11.7658 7.828 11.4938 8.116C11.2298 8.396 11.0978 8.8 11.0978 9.328V13H9.41784V6.352H11.0978V7.18C11.3218 6.892 11.6058 6.668 11.9498 6.508C12.3018 6.34 12.6858 6.256 13.1018 6.256ZM16.9194 9.652C16.9194 8.98 17.0514 8.384 17.3154 7.864C17.5874 7.344 17.9554 6.944 18.4194 6.664C18.8834 6.384 19.3994 6.244 19.9674 6.244C20.3994 6.244 20.8114 6.34 21.2034 6.532C21.5954 6.716 21.9074 6.964 22.1394 7.276V4.12H23.8434V13H22.1394V12.016C21.9314 12.344 21.6394 12.608 21.2634 12.808C20.8874 13.008 20.4514 13.108 19.9554 13.108C19.3954 13.108 18.8834 12.964 18.4194 12.676C17.9554 12.388 17.5874 11.984 17.3154 11.464C17.0514 10.936 16.9194 10.332 16.9194 9.652ZM22.1514 9.676C22.1514 9.268 22.0714 8.92 21.9114 8.632C21.7514 8.336 21.5354 8.112 21.2634 7.96C20.9914 7.8 20.6994 7.72 20.3874 7.72C20.0754 7.72 19.7874 7.796 19.5234 7.948C19.2594 8.1 19.0434 8.324 18.8754 8.62C18.7154 8.908 18.6354 9.252 18.6354 9.652C18.6354 10.052 18.7154 10.404 18.8754 10.708C19.0434 11.004 19.2594 11.232 19.5234 11.392C19.7954 11.552 20.0834 11.632 20.3874 11.632C20.6994 11.632 20.9914 11.556 21.2634 11.404C21.5354 11.244 21.7514 11.02 21.9114 10.732C22.0714 10.436 22.1514 10.084 22.1514 9.676ZM31.6643 9.532C31.6643 9.772 31.6483 9.988 31.6163 10.18H26.7563C26.7963 10.66 26.9643 11.036 27.2603 11.308C27.5563 11.58 27.9203 11.716 28.3523 11.716C28.9763 11.716 29.4203 11.448 29.6843 10.912H31.4963C31.3043 11.552 30.9363 12.08 30.3923 12.496C29.8483 12.904 29.1803 13.108 28.3883 13.108C27.7483 13.108 27.1723 12.968 26.6603 12.688C26.1563 12.4 25.7603 11.996 25.4723 11.476C25.1923 10.956 25.0522 10.356 25.0522 9.676C25.0522 8.988 25.1923 8.384 25.4723 7.864C25.7523 7.344 26.1443 6.944 26.6483 6.664C27.1523 6.384 27.7323 6.244 28.3883 6.244C29.0203 6.244 29.5843 6.38 30.0803 6.652C30.5843 6.924 30.9723 7.312 31.2443 7.816C31.5243 8.312 31.6643 8.884 31.6643 9.532ZM29.9243 9.052C29.9163 8.62 29.7603 8.276 29.4563 8.02C29.1523 7.756 28.7803 7.624 28.3403 7.624C27.9243 7.624 27.5723 7.752 27.2843 8.008C27.0043 8.256 26.8323 8.604 26.7683 9.052H29.9243ZM34.5705 7.384C34.7865 7.032 35.0665 6.756 35.4105 6.556C35.7625 6.356 36.1625 6.256 36.6105 6.256V8.02H36.1665C35.6385 8.02 35.2385 8.144 34.9665 8.392C34.7025 8.64 34.5705 9.072 34.5705 9.688V13H32.8905V6.352H34.5705V7.384ZM40.2861 13.108C39.7421 13.108 39.2541 13.012 38.8221 12.82C38.3901 12.62 38.0461 12.352 37.7901 12.016C37.5421 11.68 37.4061 11.308 37.3821 10.9H39.0741C39.1061 11.156 39.2301 11.368 39.4461 11.536C39.6701 11.704 39.9461 11.788 40.2741 11.788C40.5941 11.788 40.8421 11.724 41.0181 11.596C41.2021 11.468 41.2941 11.304 41.2941 11.104C41.2941 10.888 41.1821 10.728 40.9581 10.624C40.7421 10.512 40.3941 10.392 39.9141 10.264C39.4181 10.144 39.0101 10.02 38.6901 9.892C38.3781 9.764 38.1061 9.568 37.8741 9.304C37.6501 9.04 37.5381 8.684 37.5381 8.236C37.5381 7.868 37.6421 7.532 37.8501 7.228C38.0661 6.924 38.3701 6.684 38.7621 6.508C39.1621 6.332 39.6301 6.244 40.1661 6.244C40.9581 6.244 41.5901 6.444 42.0621 6.844C42.5341 7.236 42.7941 7.768 42.8421 8.44H41.2341C41.2101 8.176 41.0981 7.968 40.8981 7.816C40.7061 7.656 40.4461 7.576 40.1181 7.576C39.8141 7.576 39.5781 7.632 39.4101 7.744C39.2501 7.856 39.1701 8.012 39.1701 8.212C39.1701 8.436 39.2821 8.608 39.5061 8.728C39.7301 8.84 40.0781 8.956 40.5501 9.076C41.0301 9.196 41.4261 9.32 41.7381 9.448C42.0501 9.576 42.3181 9.776 42.5421 10.048C42.7741 10.312 42.8941 10.664 42.9021 11.104C42.9021 11.488 42.7941 11.832 42.5781 12.136C42.3701 12.44 42.0661 12.68 41.6661 12.856C41.2741 13.024 40.8141 13.108 40.2861 13.108ZM47.2331 13.108C46.5931 13.108 46.0171 12.968 45.5051 12.688C44.9931 12.4 44.5891 11.996 44.2931 11.476C44.0051 10.956 43.8611 10.356 43.8611 9.676C43.8611 8.996 44.0091 8.396 44.3051 7.876C44.6091 7.356 45.0211 6.956 45.5411 6.676C46.0611 6.388 46.6411 6.244 47.2811 6.244C47.9211 6.244 48.5011 6.388 49.0211 6.676C49.5411 6.956 49.9491 7.356 50.2451 7.876C50.5491 8.396 50.7011 8.996 50.7011 9.676C50.7011 10.356 50.5451 10.956 50.2331 11.476C49.9291 11.996 49.5131 12.4 48.9851 12.688C48.4651 12.968 47.8811 13.108 47.2331 13.108ZM47.2331 11.644C47.5371 11.644 47.8211 11.572 48.0851 11.428C48.3571 11.276 48.5731 11.052 48.7331 10.756C48.8931 10.46 48.9731 10.1 48.9731 9.676C48.9731 9.044 48.8051 8.56 48.4691 8.224C48.1411 7.88 47.7371 7.708 47.2571 7.708C46.7771 7.708 46.3731 7.88 46.0451 8.224C45.7251 8.56 45.5651 9.044 45.5651 9.676C45.5651 10.308 45.7211 10.796 46.0331 11.14C46.3531 11.476 46.7531 11.644 47.2331 11.644ZM55.6175 6.256C56.4095 6.256 57.0495 6.508 57.5375 7.012C58.0255 7.508 58.2695 8.204 58.2695 9.1V13H56.5895V9.328C56.5895 8.8 56.4575 8.396 56.1935 8.116C55.9295 7.828 55.5695 7.684 55.1135 7.684C54.6495 7.684 54.2815 7.828 54.0095 8.116C53.7455 8.396 53.6135 8.8 53.6135 9.328V13H51.9335V6.352H53.6135V7.18C53.8375 6.892 54.1215 6.668 54.4655 6.508C54.8175 6.34 55.2015 6.256 55.6175 6.256ZM68.4264 4.624V5.98H66.1944V13H64.5144V5.98H62.2824V4.624H68.4264ZM75.8322 9.532C75.8322 9.772 75.8162 9.988 75.7842 10.18H70.9242C70.9642 10.66 71.1322 11.036 71.4282 11.308C71.7242 11.58 72.0882 11.716 72.5202 11.716C73.1442 11.716 73.5882 11.448 73.8522 10.912H75.6642C75.4722 11.552 75.1042 12.08 74.5602 12.496C74.0162 12.904 73.3482 13.108 72.5562 13.108C71.9162 13.108 71.3402 12.968 70.8282 12.688C70.3242 12.4 69.9282 11.996 69.6402 11.476C69.3602 10.956 69.2202 10.356 69.2202 9.676C69.2202 8.988 69.3602 8.384 69.6402 7.864C69.9202 7.344 70.3122 6.944 70.8162 6.664C71.3202 6.384 71.9002 6.244 72.5562 6.244C73.1882 6.244 73.7522 6.38 74.2482 6.652C74.7522 6.924 75.1402 7.312 75.4122 7.816C75.6922 8.312 75.8322 8.884 75.8322 9.532ZM74.0922 9.052C74.0842 8.62 73.9282 8.276 73.6242 8.02C73.3202 7.756 72.9482 7.624 72.5082 7.624C72.0922 7.624 71.7402 7.752 71.4522 8.008C71.1722 8.256 71.0002 8.604 70.9362 9.052H74.0922ZM78.7385 4.12V13H77.0585V4.12H78.7385ZM82.0783 4.12V13H80.3983V4.12H82.0783ZM89.9182 9.532C89.9182 9.772 89.9022 9.988 89.8702 10.18H85.0102C85.0502 10.66 85.2182 11.036 85.5142 11.308C85.8102 11.58 86.1742 11.716 86.6062 11.716C87.2302 11.716 87.6742 11.448 87.9382 10.912H89.7502C89.5582 11.552 89.1902 12.08 88.6462 12.496C88.1022 12.904 87.4342 13.108 86.6422 13.108C86.0022 13.108 85.4262 12.968 84.9142 12.688C84.4102 12.4 84.0142 11.996 83.7262 11.476C83.4462 10.956 83.3062 10.356 83.3062 9.676C83.3062 8.988 83.4462 8.384 83.7262 7.864C84.0062 7.344 84.3982 6.944 84.9022 6.664C85.4062 6.384 85.9862 6.244 86.6422 6.244C87.2742 6.244 87.8382 6.38 88.3342 6.652C88.8382 6.924 89.2262 7.312 89.4982 7.816C89.7782 8.312 89.9182 8.884 89.9182 9.532ZM88.1782 9.052C88.1702 8.62 88.0142 8.276 87.7102 8.02C87.4062 7.756 87.0342 7.624 86.5942 7.624C86.1782 7.624 85.8262 7.752 85.5382 8.008C85.2582 8.256 85.0862 8.604 85.0222 9.052H88.1782ZM93.6884 13.108C93.1444 13.108 92.6564 13.012 92.2244 12.82C91.7924 12.62 91.4484 12.352 91.1924 12.016C90.9444 11.68 90.8084 11.308 90.7844 10.9H92.4764C92.5084 11.156 92.6324 11.368 92.8484 11.536C93.0724 11.704 93.3484 11.788 93.6764 11.788C93.9964 11.788 94.2444 11.724 94.4204 11.596C94.6044 11.468 94.6964 11.304 94.6964 11.104C94.6964 10.888 94.5844 10.728 94.3604 10.624C94.1444 10.512 93.7964 10.392 93.3164 10.264C92.8204 10.144 92.4124 10.02 92.0924 9.892C91.7804 9.764 91.5084 9.568 91.2764 9.304C91.0524 9.04 90.9404 8.684 90.9404 8.236C90.9404 7.868 91.0444 7.532 91.2524 7.228C91.4684 6.924 91.7724 6.684 92.1644 6.508C92.5644 6.332 93.0324 6.244 93.5684 6.244C94.3604 6.244 94.9924 6.444 95.4644 6.844C95.9364 7.236 96.1964 7.768 96.2444 8.44H94.6364C94.6124 8.176 94.5004 7.968 94.3004 7.816C94.1084 7.656 93.8484 7.576 93.5204 7.576C93.2164 7.576 92.9804 7.632 92.8124 7.744C92.6524 7.856 92.5724 8.012 92.5724 8.212C92.5724 8.436 92.6844 8.608 92.9084 8.728C93.1324 8.84 93.4804 8.956 93.9524 9.076C94.4324 9.196 94.8284 9.32 95.1404 9.448C95.4524 9.576 95.7204 9.776 95.9444 10.048C96.1764 10.312 96.2964 10.664 96.3044 11.104C96.3044 11.488 96.1964 11.832 95.9804 12.136C95.7724 12.44 95.4684 12.68 95.0684 12.856C94.6764 13.024 94.2164 13.108 93.6884 13.108Z" fill="white"/>
<rect x="98" width="12" height="7" rx="1" fill="#363638"/>
<path d="M102.312 3.072C102.312 3.22133 102.276 3.36133 102.204 3.492C102.135 3.62267 102.024 3.728 101.872 3.808C101.723 3.888 101.533 3.928 101.304 3.928H100.836V5H100.276V2.208H101.304C101.52 2.208 101.704 2.24533 101.856 2.32C102.008 2.39467 102.121 2.49733 102.196 2.628C102.273 2.75867 102.312 2.90667 102.312 3.072ZM101.28 3.476C101.435 3.476 101.549 3.44133 101.624 3.372C101.699 3.3 101.736 3.2 101.736 3.072C101.736 2.8 101.584 2.664 101.28 2.664H100.836V3.476H101.28ZM104.15 5L103.534 3.912H103.27V5H102.71V2.208H103.758C103.974 2.208 104.158 2.24667 104.31 2.324C104.462 2.39867 104.575 2.50133 104.65 2.632C104.727 2.76 104.766 2.904 104.766 3.064C104.766 3.248 104.712 3.41467 104.606 3.564C104.499 3.71067 104.34 3.812 104.13 3.868L104.798 5H104.15ZM103.27 3.492H103.738C103.89 3.492 104.003 3.456 104.078 3.384C104.152 3.30933 104.19 3.20667 104.19 3.076C104.19 2.948 104.152 2.84933 104.078 2.78C104.003 2.708 103.89 2.672 103.738 2.672H103.27V3.492ZM106.568 5.028C106.307 5.028 106.067 4.96667 105.848 4.844C105.629 4.72133 105.456 4.552 105.328 4.336C105.2 4.11733 105.136 3.87067 105.136 3.596C105.136 3.324 105.2 3.08 105.328 2.864C105.456 2.64533 105.629 2.47467 105.848 2.352C106.067 2.22933 106.307 2.168 106.568 2.168C106.832 2.168 107.072 2.22933 107.288 2.352C107.507 2.47467 107.679 2.64533 107.804 2.864C107.932 3.08 107.996 3.324 107.996 3.596C107.996 3.87067 107.932 4.11733 107.804 4.336C107.679 4.552 107.507 4.72133 107.288 4.844C107.069 4.96667 106.829 5.028 106.568 5.028ZM106.568 4.528C106.736 4.528 106.884 4.49067 107.012 4.416C107.14 4.33867 107.24 4.22933 107.312 4.088C107.384 3.94667 107.42 3.78267 107.42 3.596C107.42 3.40933 107.384 3.24667 107.312 3.108C107.24 2.96667 107.14 2.85867 107.012 2.784C106.884 2.70933 106.736 2.672 106.568 2.672C106.4 2.672 106.251 2.70933 106.12 2.784C105.992 2.85867 105.892 2.96667 105.82 3.108C105.748 3.24667 105.712 3.40933 105.712 3.596C105.712 3.78267 105.748 3.94667 105.82 4.088C105.892 4.22933 105.992 4.33867 106.12 4.416C106.251 4.49067 106.4 4.528 106.568 4.528Z" fill="white"/>
</svg>
